<svg width="315" height="19" viewBox="0 0 315 19" fill="none" xmlns="http://www.w3.org/2000/svg">
<g clip-path="url(#clip0_1_394)">
<path fill-rule="evenodd" clip-rule="evenodd" d="M9.8125 14.0083L4.04485 17.7876L5.85693 11.1344L0.480255 6.81689L7.36782 6.48431L9.8125 0.0366211L12.2572 6.48431L19.1447 6.81689L13.7681 11.1344L15.5801 17.7876L9.8125 14.0083Z" fill="#FFC54F"/>
</g>
<g clip-path="url(#clip1_1_394)">
<path fill-rule="evenodd" clip-rule="evenodd" d="M34.4375 14.0083L28.6699 17.7876L30.4819 11.1344L25.1053 6.81689L31.9928 6.48431L34.4375 0.0366211L36.8822 6.48431L43.7697 6.81689L38.3931 11.1344L40.2051 17.7876L34.4375 14.0083Z" fill="#FFC54F"/>
</g>
<g clip-path="url(#clip2_1_394)">
<path fill-rule="evenodd" clip-rule="evenodd" d="M59.0625 14.0083L53.2949 17.7876L55.1069 11.1344L49.7303 6.81689L56.6178 6.48431L59.0625 0.0366211L61.5072 6.48431L68.3947 6.81689L63.0181 11.1344L64.8301 17.7876L59.0625 14.0083Z" fill="#FFC54F"/>
</g>
<g clip-path="url(#clip3_1_394)">
<path fill-rule="evenodd" clip-rule="evenodd" d="M83.6875 14.0083L77.9199 17.7876L79.7319 11.1344L74.3553 6.81689L81.2428 6.48431L83.6875 0.0366211L86.1322 6.48431L93.0197 6.81689L87.6431 11.1344L89.4551 17.7876L83.6875 14.0083Z" fill="#FFC54F"/>
</g>
<g clip-path="url(#clip4_1_394)">
<path fill-rule="evenodd" clip-rule="evenodd" d="M108.312 14.0083L102.545 17.7876L104.357 11.1344L98.9803 6.81689L105.868 6.48431L108.312 0.0366211L110.757 6.48431L117.645 6.81689L112.268 11.1344L114.08 17.7876L108.312 14.0083Z" fill="#FFC54F"/>
</g>
<defs>
<clipPath id="clip0_1_394">
<rect width="19.625" height="17.9896" fill="white" transform="translate(0 0.0366211)"/>
</clipPath>
<clipPath id="clip1_1_394">
<rect width="19.625" height="17.9896" fill="white" transform="translate(24.625 0.0366211)"/>
</clipPath>
<clipPath id="clip2_1_394">
<rect width="19.625" height="17.9896" fill="white" transform="translate(49.25 0.0366211)"/>
</clipPath>
<clipPath id="clip3_1_394">
<rect width="19.625" height="17.9896" fill="white" transform="translate(73.875 0.0366211)"/>
</clipPath>
<clipPath id="clip4_1_394">
<rect width="19.625" height="17.9896" fill="white" transform="translate(98.5 0.0366211)"/>
</clipPath>
</defs>
</svg>
